<svg width="120" height="100" viewBox="0 0 120 100" fill="none" xmlns="http://www.w3.org/2000/svg">
<g id="javascript">
<g id="JG">
<path id="J" d="M42.5938 58.0312V26.5H51.9375V58.0312C51.9375 61.0729 51.2708 63.6875 49.9375 65.875C48.6042 68.0417 46.7812 69.7083 44.4688 70.875C42.1771 72.0417 39.5938 72.625 36.7188 72.625C33.7396 72.625 31.1042 72.125 28.8125 71.125C26.5208 70.125 24.7188 68.5938 23.4062 66.5312C22.0938 64.4479 21.4375 61.8125 21.4375 58.625H30.8438C30.8438 60.2917 31.0729 61.6146 31.5312 62.5938C32.0104 63.5729 32.6875 64.2708 33.5625 64.6875C34.4375 65.1042 35.4896 65.3125 36.7188 65.3125C37.9062 65.3125 38.9375 65.0312 39.8125 64.4688C40.6875 63.9062 41.3646 63.0833 41.8438 62C42.3438 60.9167 42.5938 59.5938 42.5938 58.0312Z" fill="black"/>
</g>
<g id="SG">
<path id="S" d="M87.5312 61.0938C87.5312 60.2812 87.4062 59.5521 87.1562 58.9062C86.9271 58.2396 86.4896 57.6354 85.8438 57.0938C85.1979 56.5312 84.2917 55.9792 83.125 55.4375C81.9583 54.8958 80.4479 54.3333 78.5938 53.75C76.5312 53.0833 74.5729 52.3333 72.7188 51.5C70.8854 50.6667 69.2604 49.6979 67.8438 48.5938C66.4479 47.4688 65.3438 46.1667 64.5312 44.6875C63.7396 43.2083 63.3438 41.4896 63.3438 39.5312C63.3438 37.6354 63.7604 35.9167 64.5938 34.375C65.4271 32.8125 66.5938 31.4792 68.0938 30.375C69.5938 29.25 71.3646 28.3854 73.4062 27.7812C75.4688 27.1771 77.7292 26.875 80.1875 26.875C83.5417 26.875 86.4688 27.4792 88.9688 28.6875C91.4688 29.8958 93.4062 31.5521 94.7812 33.6562C96.1771 35.7604 96.875 38.1667 96.875 40.875H87.5625C87.5625 39.5417 87.2812 38.375 86.7188 37.375C86.1771 36.3542 85.3438 35.5521 84.2188 34.9688C83.1146 34.3854 81.7188 34.0938 80.0312 34.0938C78.4062 34.0938 77.0521 34.3438 75.9688 34.8438C74.8854 35.3229 74.0729 35.9792 73.5312 36.8125C72.9896 37.625 72.7188 38.5417 72.7188 39.5625C72.7188 40.3333 72.9062 41.0312 73.2812 41.6562C73.6771 42.2812 74.2604 42.8646 75.0312 43.4062C75.8021 43.9479 76.75 44.4583 77.875 44.9375C79 45.4167 80.3021 45.8854 81.7812 46.3438C84.2604 47.0938 86.4375 47.9375 88.3125 48.875C90.2083 49.8125 91.7917 50.8646 93.0625 52.0312C94.3333 53.1979 95.2917 54.5208 95.9375 56C96.5833 57.4792 96.9062 59.1562 96.9062 61.0312C96.9062 63.0104 96.5208 64.7812 95.75 66.3438C94.9792 67.9062 93.8646 69.2292 92.4062 70.3125C90.9479 71.3958 89.2083 72.2188 87.1875 72.7812C85.1667 73.3438 82.9062 73.625 80.4062 73.625C78.1562 73.625 75.9375 73.3333 73.75 72.75C71.5625 72.1458 69.5729 71.2396 67.7812 70.0312C66.0104 68.8229 64.5938 67.2812 63.5312 65.4062C62.4688 63.5312 61.9375 61.3125 61.9375 58.75H71.3438C71.3438 60.1667 71.5625 61.3646 72 62.3438C72.4375 63.3229 73.0521 64.1146 73.8438 64.7188C74.6562 65.3229 75.6146 65.7604 76.7188 66.0312C77.8438 66.3021 79.0729 66.4375 80.4062 66.4375C82.0312 66.4375 83.3646 66.2083 84.4062 65.75C85.4688 65.2917 86.25 64.6562 86.75 63.8438C87.2708 63.0312 87.5312 62.1146 87.5312 61.0938Z" fill="black"/>
</g>
</g>
</svg>
